<svg width="122" height="122" viewBox="0 0 122 122" fill="none" xmlns="http://www.w3.org/2000/svg">
<path d="M54.5 109C84.5995 109 109 84.5995 109 54.5C109 24.4005 84.5995 0 54.5 0C24.4005 0 0 24.4005 0 54.5C0 84.5995 24.4005 109 54.5 109Z" fill="#6E8CE6"/>
<path fill-rule="evenodd" clip-rule="evenodd" d="M56.9031 64.3176C56.2973 64.3176 55.7472 64.3176 55.1566 64.3176C55.1566 64.4659 55.1566 64.6003 55.1566 64.7334C55.1541 67.4736 55.1629 70.2163 55.1414 72.9591C55.1338 73.8754 54.8917 74.7512 54.4925 75.5725C53.9525 76.6967 52.9994 77.2658 51.8093 77.4838C51.6103 77.518 51.4024 77.5611 51.2022 77.5485C51.0171 77.5358 50.8346 77.4547 50.6192 77.3951C50.822 77.0554 50.9766 76.7817 51.1439 76.5142C51.6788 75.6676 51.9259 74.7195 51.9398 73.7398C51.9817 70.7968 51.9715 67.8513 51.9855 64.9045C51.9855 64.85 51.969 64.7929 51.9614 64.7384C51.1578 64.8626 50.5697 65.5901 50.5266 66.5128C50.5089 66.8994 50.5216 67.2822 50.5216 67.6688C50.5216 69.3697 50.4557 71.0731 50.5381 72.7677C50.6572 75.1707 48.9411 76.1125 47.2871 76.3228C46.8967 76.3723 46.4974 76.3495 46.1007 76.3355C45.9626 76.3304 45.8105 76.281 45.6863 76.2113C45.372 76.0351 45.339 75.6967 45.6026 75.4508C45.7192 75.3418 45.8434 75.2379 45.9778 75.1606C47.3745 74.3608 47.8599 73.1352 47.7294 71.5813C47.6255 70.3684 47.5722 69.1504 47.4949 67.9298C47.1654 68.0046 46.7877 68.1086 46.4037 68.1719C44.7294 68.4546 43.1831 68.0655 41.671 67.3506C40.5341 66.8132 39.8079 65.9045 39.1704 64.8905C38.7166 64.1757 38.3491 63.3848 37.8091 62.7447C37.0677 61.8689 36.2033 61.0933 35.3744 60.291C35.0372 59.9589 35.0233 59.7903 35.4124 59.5115C36.093 59.021 36.8041 59.2124 37.4771 59.5014C38.3313 59.8727 38.941 60.5508 39.5189 61.2568C40.2844 62.1845 41.0627 63.0933 42.0791 63.7714C43.8485 64.9552 45.9803 64.9501 47.7104 63.7194C47.8093 63.6472 47.8878 63.5166 47.9335 63.4C48.3644 62.2365 49.1401 61.3949 50.2846 60.9044C50.7079 60.7232 51.1337 60.5432 51.6572 60.3201C50.9664 60.2339 50.3708 60.1642 49.7814 60.0818C47.2288 59.7232 44.7725 59.0844 42.5342 57.7371C40.0817 56.2592 38.6304 54.0805 38.0043 51.3276C37.3655 48.505 37.3605 45.6888 38.2274 42.908C38.6507 41.5493 39.4226 40.3757 40.3478 39.3034C40.4974 39.1323 40.543 38.9916 40.4796 38.7635C39.8434 36.5036 40.0969 34.2805 40.7686 32.0752C40.8142 31.9244 40.8675 31.7735 40.9182 31.6227C40.9283 31.5936 40.9486 31.5657 41.0069 31.4465C41.8447 31.5948 42.7167 31.7089 43.5697 31.9142C45.3428 32.3375 46.9449 33.1424 48.4011 34.2336C48.5862 34.3693 48.7446 34.3997 48.9601 34.3452C51.1325 33.7888 53.3467 33.5264 55.5837 33.5137C57.7751 33.5036 59.9437 33.7393 62.0882 34.207C62.3544 34.2666 62.5496 34.2197 62.7803 34.0752C64.2708 33.1512 65.76 32.2032 67.5129 31.8521C68.2974 31.6911 69.101 31.624 69.8944 31.5099C70.0947 31.4833 70.1961 31.5391 70.2569 31.7494C70.916 33.9358 71.1796 36.1487 70.7538 38.4187C70.7284 38.548 70.7766 38.7356 70.8653 38.8319C72.6194 40.7698 73.4927 43.0804 73.7766 45.6444C73.9946 47.6102 73.8539 49.5557 73.4204 51.481C72.7791 54.3403 71.1631 56.4861 68.6904 58.0438C66.8779 59.182 64.8994 59.7865 62.8031 60.0768C62.1225 60.168 61.4355 60.2352 60.7004 60.3189C60.7942 60.381 60.8601 60.4304 60.9298 60.4722C61.2784 60.6801 61.632 60.8879 61.9805 61.0958C63.4254 61.9475 64.1656 63.2492 64.3874 64.8753C64.4305 65.1998 64.4533 65.5293 64.4584 65.855C64.504 68.3582 64.542 70.8602 64.5927 73.3608C64.5953 73.499 64.6459 73.6524 64.722 73.769C65.1352 74.423 65.6929 74.9249 66.3557 75.319C66.5801 75.4508 66.7955 75.5814 66.7284 75.8932C66.665 76.1872 66.4356 76.2912 66.1783 76.319C64.5952 76.4901 63.2087 76.0795 62.1466 74.8463C61.7473 74.3811 61.6725 73.7816 61.6725 73.1809C61.67 71.1213 61.6725 69.0566 61.67 66.9945C61.67 66.7689 61.6624 66.542 61.6307 66.3189C61.5027 65.4926 60.964 64.9273 60.0768 64.7169C60.0768 64.8487 60.0768 64.9666 60.0768 65.0857C60.0768 67.8044 60.0692 70.5243 60.0794 73.2455C60.0819 73.7525 60.13 74.2607 60.1884 74.7677C60.2467 75.2797 60.4418 75.7411 60.7359 76.1733C60.9843 76.537 61.1491 76.9604 61.3798 77.4154C61.1516 77.4597 61.0198 77.5218 60.8981 77.5016C60.0096 77.3698 59.1389 77.1594 58.4127 76.5877C57.5876 75.9388 57.2707 75.0034 57.0603 74.0326C56.9513 73.5281 56.9133 73.0009 56.9107 72.4825C56.8955 69.8982 56.9031 67.3164 56.9031 64.7321C56.9031 64.6079 56.9031 64.4735 56.9031 64.3176Z" fill="white"/>
</svg>
