<svg width="126" height="126" viewBox="0 0 126 126" fill="none" xmlns="http://www.w3.org/2000/svg">
<g filter="url(#filter0_d_4338_137359)">
<path d="M62.501 113.002C92.6011 113.002 117.002 88.6011 117.002 58.501C117.002 28.4009 92.6011 4 62.501 4C32.4009 4 8 28.4009 8 58.501C8 88.6011 32.4009 113.002 62.501 113.002Z" fill="#6E8CE6"/>
</g>
<path d="M72.103 82.2579H52.898C49.1453 82.2537 45.5475 80.7609 42.894 78.1073C40.2405 75.4536 38.748 71.8556 38.744 68.1029V48.8979C38.7483 45.1453 40.2408 41.5477 42.8943 38.8942C45.5478 36.2407 49.1454 34.7481 52.898 34.7439H72.103C75.8558 34.7479 79.4537 36.2403 82.1074 38.8938C84.7611 41.5473 86.2538 45.1451 86.258 48.8979V68.1029C86.254 71.8558 84.7614 75.4539 82.1077 78.1076C79.454 80.7613 75.8559 82.2539 72.103 82.2579V82.2579ZM52.898 39.5229C50.4125 39.5258 48.0296 40.5145 46.2721 42.272C44.5146 44.0295 43.5259 46.4124 43.523 48.8979V68.1029C43.5259 70.5883 44.5146 72.9711 46.2722 74.7285C48.0297 76.4858 50.4126 77.4743 52.898 77.4769H72.103C74.5883 77.4743 76.9711 76.4858 78.7285 74.7284C80.4859 72.971 81.4744 70.5882 81.477 68.1029V48.8979C81.4744 46.4125 80.4859 44.0296 78.7286 42.272C76.9712 40.5145 74.5884 39.5258 72.103 39.5229H52.898ZM62.498 70.7879C60.0678 70.7871 57.6924 70.0657 55.6722 68.715C53.6519 67.3642 52.0776 65.4448 51.1481 63.1993C50.2187 60.9538 49.976 58.4832 50.4507 56.0998C50.9254 53.7164 52.0961 51.5273 53.8149 49.8092C55.5336 48.0911 57.7232 46.9213 60.1068 46.4476C62.4904 45.9739 64.961 46.2176 67.206 47.1479C69.4511 48.0783 71.37 49.6534 72.7199 51.6742C74.0698 53.695 74.7902 56.0707 74.79 58.5009C74.7868 61.7591 73.4911 64.8829 71.1871 67.1867C68.8831 69.4905 65.7592 70.786 62.501 70.7889L62.498 70.7879ZM62.498 50.9879C61.0129 50.9879 59.5611 51.4283 58.3262 52.2534C57.0914 53.0785 56.1289 54.2512 55.5606 55.6233C54.9923 56.9954 54.8436 58.5052 55.1333 59.9618C55.423 61.4184 56.1382 62.7564 57.1884 63.8066C58.2385 64.8567 59.5765 65.5719 61.0331 65.8616C62.4897 66.1513 63.9995 66.0026 65.3716 65.4343C66.7437 64.866 67.9164 63.9035 68.7415 62.6687C69.5666 61.4338 70.007 59.982 70.007 58.4969C70.0038 56.5072 69.212 54.6 67.805 53.1932C66.398 51.7864 64.4907 50.9948 62.501 50.9919L62.498 50.9879ZM74.81 49.2449C74.2276 49.2447 73.6582 49.0718 73.174 48.748C72.6898 48.4243 72.3125 47.9642 72.0898 47.426C71.8671 46.8878 71.809 46.2956 71.9228 45.7244C72.0366 45.1531 72.3173 44.6285 72.7293 44.2168C73.1413 43.805 73.6661 43.5247 74.2375 43.4113C74.8088 43.2978 75.4009 43.3564 75.9389 43.5795C76.477 43.8025 76.9368 44.1802 77.2603 44.6646C77.5837 45.149 77.7562 45.7184 77.756 46.3009C77.756 47.0819 77.4461 47.831 76.8943 48.3837C76.3426 48.9364 75.594 49.2476 74.813 49.2489L74.81 49.2449Z" fill="white"/>
<defs>
<filter id="filter0_d_4338_137359" x="0" y="0" width="125.002" height="125.002" filterUnits="userSpaceOnUse" color-interpolation-filters="sRGB">
<feFlood flood-opacity="0" result="BackgroundImageFix"/>
<feColorMatrix in="SourceAlpha" type="matrix" values="0 0 0 0 0 0 0 0 0 0 0 0 0 0 0 0 0 0 127 0" result="hardAlpha"/>
<feOffset dy="4"/>
<feGaussianBlur stdDeviation="4"/>
<feColorMatrix type="matrix" values="0 0 0 0 0 0 0 0 0 0 0 0 0 0 0 0 0 0 0.102 0"/>
<feBlend mode="normal" in2="BackgroundImageFix" result="effect1_dropShadow_4338_137359"/>
<feBlend mode="normal" in="SourceGraphic" in2="effect1_dropShadow_4338_137359" result="shape"/>
</filter>
</defs>
</svg>
