<svg xmlns="http://www.w3.org/2000/svg" width="127.002" height="127.001"><defs><filter id="a" x="0" y="0" width="127.002" height="127.001" filterUnits="userSpaceOnUse"><feOffset dy="3"/><feGaussianBlur stdDeviation="3" result="b"/><feFlood flood-opacity=".161"/><feComposite operator="in" in2="b"/><feComposite in="SourceGraphic"/></filter></defs><circle cx="54.501" cy="54.501" r="54.501" transform="translate(9 6)" fill="#6e8ce6" filter="url(#a)"/><path d="M85.86 46.634a18.4 18.4 0 0 1-5.27 1.446 9.2 9.2 0 0 0 4.033-5.074 18.335 18.335 0 0 1-5.827 2.228 9.179 9.179 0 0 0-15.872 6.272 9.276 9.276 0 0 0 .239 2.092 26.044 26.044 0 0 1-18.907-9.585 9.182 9.182 0 0 0 2.839 12.246 9.1 9.1 0 0 1-4.154-1.148v.117a9.176 9.176 0 0 0 7.358 8.993 9.16 9.16 0 0 1-2.418.322 9.025 9.025 0 0 1-1.726-.166 9.189 9.189 0 0 0 8.571 6.372 18.431 18.431 0 0 1-11.4 3.924 18.492 18.492 0 0 1-2.185-.127 25.962 25.962 0 0 0 14.064 4.122c16.874 0 26.1-13.977 26.1-26.1 0-.4-.011-.792-.026-1.186a18.647 18.647 0 0 0 4.581-4.748z" fill="#fff"/></svg>