<svg width="122" height="122" viewBox="0 0 122 122" fill="none" xmlns="http://www.w3.org/2000/svg">
<g filter="url(#filter0_d_4338_137357)">
<path d="M60.501 112.002C90.6011 112.002 115.002 87.6011 115.002 57.501C115.002 27.4009 90.6011 3 60.501 3C30.4009 3 6 27.4009 6 57.501C6 87.6011 30.4009 112.002 60.501 112.002Z" fill="#6E8CE6"/>
</g>
<path d="M82.86 43.6339C81.1851 44.3755 79.4088 44.8629 77.59 45.0799C79.5053 43.9338 80.9387 42.1305 81.623 40.0059C79.8222 41.076 77.8513 41.8295 75.796 42.2339C74.5372 40.8927 72.9045 39.9605 71.1096 39.5584C69.3147 39.1563 67.4403 39.3028 65.7296 39.9788C64.0189 40.6548 62.5508 41.8291 61.5156 43.3496C60.4804 44.8701 59.9259 46.6665 59.924 48.5059C59.924 49.21 60.0042 49.9119 60.163 50.5979C56.5156 50.4151 52.9475 49.4673 49.6902 47.816C46.4329 46.1647 43.5593 43.8468 41.256 41.0129C40.0831 43.0324 39.7239 45.4229 40.2513 47.6979C40.7787 49.9729 42.1532 51.9615 44.095 53.2589C42.6384 53.2144 41.2138 52.8207 39.941 52.1109V52.2279C39.9412 54.3457 40.6741 56.3983 42.0152 58.0374C43.3563 59.6765 45.2231 60.8013 47.299 61.2209C46.511 61.4355 45.6977 61.5438 44.881 61.5429C44.3017 61.5431 43.7237 61.4875 43.155 61.3769C43.7416 63.1996 44.883 64.7935 46.4197 65.9359C47.9564 67.0784 49.8115 67.7122 51.726 67.7489C48.4734 70.2979 44.4584 71.6799 40.326 71.6729C39.5958 71.6737 38.8662 71.6313 38.141 71.5459C42.3358 74.242 47.2184 75.6731 52.205 75.6679C69.079 75.6679 78.305 61.6909 78.305 49.5679C78.305 49.1679 78.294 48.7759 78.279 48.3819C80.0761 47.0841 81.6273 45.4763 82.86 43.6339V43.6339Z" fill="white"/>
<defs>
<filter id="filter0_d_4338_137357" x="0" y="0" width="121.002" height="121.002" filterUnits="userSpaceOnUse" color-interpolation-filters="sRGB">
<feFlood flood-opacity="0" result="BackgroundImageFix"/>
<feColorMatrix in="SourceAlpha" type="matrix" values="0 0 0 0 0 0 0 0 0 0 0 0 0 0 0 0 0 0 127 0" result="hardAlpha"/>
<feOffset dy="3"/>
<feGaussianBlur stdDeviation="3"/>
<feColorMatrix type="matrix" values="0 0 0 0 0 0 0 0 0 0 0 0 0 0 0 0 0 0 0.161 0"/>
<feBlend mode="normal" in2="BackgroundImageFix" result="effect1_dropShadow_4338_137357"/>
<feBlend mode="normal" in="SourceGraphic" in2="effect1_dropShadow_4338_137357" result="shape"/>
</filter>
</defs>
</svg>
