<svg width="122" height="122" viewBox="0 0 122 122" fill="none" xmlns="http://www.w3.org/2000/svg">
<g filter="url(#filter0_d_4338_137360)">
<path d="M60.501 112.002C90.6011 112.002 115.002 87.6011 115.002 57.501C115.002 27.4009 90.6011 3 60.501 3C30.4009 3 6 27.4009 6 57.501C6 87.6011 30.4009 112.002 60.501 112.002Z" fill="#6E8CE6"/>
</g>
<path d="M60.501 77.065C60.37 77.065 47.356 76.97 43.414 76.532C43.202 76.482 42.944 76.445 42.645 76.402C40.8166 76.2947 39.1017 75.4802 37.863 74.131C36.406 72.46 35.873 68.655 35.868 68.617C35.5432 65.6341 35.3693 62.6366 35.347 59.636L35.347 55.455C35.347 50.98 35.862 46.43 35.868 46.384C35.874 46.338 36.32 42.536 37.862 40.87C38.4783 40.1762 39.229 39.6148 40.0687 39.2197C40.9084 38.8247 41.8196 38.6044 42.747 38.572H42.757L42.897 38.559C49.836 38.036 60.395 37.936 60.501 37.936C60.607 37.936 71.166 38.036 78.109 38.559L78.347 38.578C79.2633 38.5947 80.1653 38.808 80.9921 39.2034C81.8188 39.5988 82.551 40.1672 83.139 40.87C84.595 42.54 85.129 46.346 85.134 46.384C85.139 46.422 85.655 50.976 85.655 55.455V59.636C85.655 64.023 85.14 68.572 85.134 68.617C85.128 68.662 84.595 72.461 83.139 74.131C82.5236 74.8246 81.7737 75.3861 80.9349 75.7814C80.0961 76.1768 79.1858 76.3978 78.259 76.431H78.247L78.107 76.444C71.164 77.057 60.607 77.065 60.501 77.065ZM54.429 48.518V67.818L70.91 58.391L54.429 48.518Z" fill="white"/>
<defs>
<filter id="filter0_d_4338_137360" x="0" y="0" width="121.002" height="121.002" filterUnits="userSpaceOnUse" color-interpolation-filters="sRGB">
<feFlood flood-opacity="0" result="BackgroundImageFix"/>
<feColorMatrix in="SourceAlpha" type="matrix" values="0 0 0 0 0 0 0 0 0 0 0 0 0 0 0 0 0 0 127 0" result="hardAlpha"/>
<feOffset dy="3"/>
<feGaussianBlur stdDeviation="3"/>
<feColorMatrix type="matrix" values="0 0 0 0 0 0 0 0 0 0 0 0 0 0 0 0 0 0 0.161 0"/>
<feBlend mode="normal" in2="BackgroundImageFix" result="effect1_dropShadow_4338_137360"/>
<feBlend mode="normal" in="SourceGraphic" in2="effect1_dropShadow_4338_137360" result="shape"/>
</filter>
</defs>
</svg>
